<?xml version="1.0" encoding="utf-8"?>
<!DOCTYPE svg PUBLIC "-//W3C//DTD SVG 1.1//EN" "http://www.w3.org/Graphics/SVG/1.1/DTD/svg11.dtd">
<svg xmlns="http://www.w3.org/2000/svg" xmlns:xlink="http://www.w3.org/1999/xlink" x="0px" y="0px" width="135px" height="57px" viewBox="50 47 135 57">
	<path fill="#E31838" d="M53.696,63.939L53.696,63.939l-3,1.684c-0.631,0.354-0.875,1.14-0.556,1.789l17.385,35.328c0.166,0.336,0.462,0.59,0.819,0.699c0.359,0.11,0.746,0.068,1.072-0.114l3.347-1.887c13.747-7.754,30.054-12.2,44.737-12.2s30.99,4.447,44.738,12.201l3.346,1.886c0.327,0.183,0.714,0.225,1.071,0.114c0.358-0.11,0.655-0.363,0.82-0.699l17.384-35.328c0.32-0.649,0.076-1.436-0.554-1.789l-3.002-1.685C161.289,52.699,139.82,47,117.5,47C95.181,47,73.714,52.699,53.696,63.939z"/>
	<path fill="#BA102C" d="M117.499,84.244c-15.517,0-32.716,4.681-47.19,12.844l-1.965,6.352l0,0c0.358,0.109,0.746,0.069,1.072-0.115l3.346-1.887c13.748-7.753,30.055-12.2,44.737-12.2c14.685,0,30.989,4.447,44.737,12.202l3.349,1.885c0.325,0.185,0.711,0.226,1.069,0.115l-1.963-6.352C150.217,88.925,133.018,84.244,117.499,84.244z"/>
	<path fill="#CE1432" d="M56.14,68.295l-6.079-1.887c-0.1,0.32-0.081,0.68,0.079,1.004l17.384,35.328c0.166,0.336,0.462,0.59,0.819,0.699l1.966-6.352L56.14,68.295z"/>
	<path fill="#CE1432" d="M164.691,97.088l1.963,6.352l0,0c0.359-0.11,0.654-0.362,0.82-0.699l17.385-35.328c0.158-0.324,0.179-0.684,0.078-1.004l-6.078,1.885L164.691,97.088z"/>
	<path fill="#EF404A" d="M117.499,51.994c21.455,0,42.099,5.484,61.36,16.299l6.076-1.893c-0.102-0.32-0.318-0.604-0.631-0.777l-3.002-1.685C161.288,52.699,139.82,47,117.499,47c-22.319,0-43.786,5.699-63.803,16.939l-3,1.684c-0.313,0.176-0.531,0.459-0.632,0.778l6.077,1.894C75.402,57.479,96.046,51.994,117.499,51.994z"/>
	<path fill="#FFFFFF" d="M150.1,62.746c-0.099,0.09-0.158,0.275-0.127,0.441c0,0,2.395,13.55,2.438,13.792c-0.086,0.228-2.489,6.57-2.489,6.57c-0.062,0.157-0.044,0.264,0.002,0.363c0.05,0.102,0.156,0.184,0.271,0.225c1.849,0.654,3.798,1.387,5.215,1.957c0.23,0.094,0.496-0.016,0.59-0.248c0,0,2.531-6.201,2.622-6.424c0.196-0.148,11.224-8.453,11.224-8.453c0.114-0.085,0.184-0.244,0.18-0.407c-0.006-0.157-0.113-0.295-0.254-0.364c-1.754-0.852-3.617-1.741-5.356-2.487c-0.165-0.069-0.354-0.037-0.485,0.084c0,0-5.632,5.178-6.767,6.219c-0.116-1.533-0.701-9.143-0.701-9.143c-0.015-0.182-0.135-0.336-0.306-0.395c-1.602-0.548-3.643-1.205-5.602-1.803C150.4,62.629,150.2,62.653,150.1,62.746z"/>
	<path fill="#FFFFFF" d="M124.391,58.543l-1.619,19.5c-0.01,0.122,0.029,0.242,0.108,0.334c0.08,0.092,0.192,0.147,0.313,0.157c0.826,0.053,3.024,0.213,5.6,0.539c0.123,0.016,0.246-0.02,0.341-0.096c0.095-0.078,0.156-0.188,0.167-0.311c0,0,0.618-6.421,0.838-8.708c1.075,2.206,4.834,9.915,4.834,9.915c0.061,0.126,0.18,0.217,0.317,0.247c1.506,0.303,3.36,0.712,5.219,1.151c0.119,0.026,0.243,0.006,0.347-0.058c0.102-0.063,0.174-0.165,0.203-0.284l4.375-19.185c0.055-0.244-0.097-0.486-0.338-0.543c-1.826-0.428-4.082-0.916-5.883-1.271c-0.244-0.049-0.482,0.109-0.533,0.352c0,0-1.63,7.783-2.072,9.896c-0.922-2.058-5.026-11.212-5.026-11.212c-0.065-0.146-0.202-0.246-0.36-0.266c-2.757-0.336-5.558-0.522-6.35-0.572C124.626,58.111,124.412,58.297,124.391,58.543z"/>
	<path fill="#FFFFFF" d="M116.604,57.912c0,0-3.318,0.063-3.321,0.063c-4.306,0.154-9.179,0.62-13.722,1.309c-0.246,0.036-0.416,0.264-0.383,0.508l2.622,19.476c0.017,0.121,0.082,0.23,0.181,0.303s0.223,0.104,0.344,0.082c5.318-0.86,10.591-1.334,15.484-1.309c0.25,0,0.453-0.197,0.457-0.449l0.037-3.591c0-0.121-0.046-0.236-0.13-0.324c-0.085-0.084-0.2-0.131-0.319-0.135c-2.686-0.086-7.576,0.225-10.021,0.479c-0.078-0.631-0.355-2.891-0.438-3.548c2.064-0.222,7.102-0.489,7.324-0.485c0.225,0,0.449-0.213,0.445-0.463l-0.066-3.308c-0.002-0.122-0.053-0.235-0.14-0.319c-0.087-0.082-0.206-0.125-0.324-0.126c-1.282-0.017-5.319,0.246-7.741,0.486l-0.438-3.597c2.416-0.233,4.965-0.409,6.991-0.483c-0.016,0,3.188-0.056,3.188-0.056c0.249-0.006,0.447-0.207,0.447-0.457l-0.012-3.604c-0.002-0.122-0.051-0.237-0.137-0.323C116.843,57.957,116.727,57.91,116.604,57.912z"/>
	<path fill="#FFFFFF" d="M91.225,60.889c-2.129,0.494-4.326,1.068-6.529,1.708c-0.16,0.046-0.283,0.179-0.317,0.344c0,0-1.86,9.03-2.128,10.331c-1.014-0.854-8.064-6.796-8.064-6.796c-0.127-0.108-0.307-0.136-0.463-0.073c-2.273,0.924-4.385,1.84-6.271,2.727c-0.224,0.104-0.322,0.369-0.223,0.595l7.861,17.809c0.049,0.113,0.141,0.201,0.254,0.244c0.113,0.041,0.24,0.037,0.352-0.014c1.258-0.574,2.964-1.279,5.214-2.15c0.114-0.043,0.212-0.131,0.254-0.246s0.046-0.247-0.001-0.355c0,0-2.458-5.768-3.346-7.847c1.863,1.306,7.127,5.001,7.127,5.001c0.121,0.084,0.271,0.105,0.41,0.059c0.138-0.049,0.244-0.16,0.285-0.299c0,0,1.85-6.172,2.498-8.331c0.602,2.165,2.305,8.285,2.305,8.285c0.066,0.239,0.315,0.382,0.557,0.317c1.896-0.518,3.97-1.045,5.413-1.383c0.12-0.026,0.223-0.104,0.286-0.207c0.064-0.104,0.08-0.23,0.052-0.349l-4.981-19.039C91.704,60.979,91.463,60.832,91.225,60.889z"/>
</svg>
